# xmcd
# 
# Track frame offsets:
#     150
#     13683
#     34351
#     49561
#     70695
#     95413
#     119992
#     134678
#     152037
#     170169
#     186239
#     201020
# 
# Disc length: 2893
# 
# Revision: 5
# Processed by: cddbd v1.5.2PL0 Copyright (c) Steve Scherf et al.
# Submitted via: fre:ac v1.0.31
# 
DISCID=b10b4b0c
DTITLE=Chris Rea - Blue Guitars [03 Louisiana and New Orleans]
DYEAR=2005
DGENRE=Blues
TTITLE0=Two Days Missing Down The Viper Room
TTITLE1=Who Cares If I Do
TTITLE2=What Made Me Love You
TTITLE3=You Got Dixie
TTITLE4=One Night With You
TTITLE5=Talking 'Bout New Orleans
TTITLE6=Le Fleur De La Vie
TTITLE7=Catfish Girl
TTITLE8=Only A Fool Plays By The Rules
TTITLE9=Baby Come Home
TTITLE10=Dance Avec Moi
TTITLE11=L'ete Eternal
EXTD=CD 2005 - CD 03/11\nJazzee Blue/EarBooks - edel records 9 783937 406329
EXTT0=
EXTT1=
EXTT2=
EXTT3=
EXTT4=
EXTT5=
EXTT6=
EXTT7=
EXTT8=
EXTT9=
EXTT10=
EXTT11=
PLAYORDER=
